<?xml version="1.0" encoding="UTF-8" standalone="no"?>
<svg
   xmlns:dc="http://purl.org/dc/elements/1.1/"
   xmlns:cc="http://creativecommons.org/ns#"
   xmlns:rdf="http://www.w3.org/1999/02/22-rdf-syntax-ns#"
   xmlns:svg="http://www.w3.org/2000/svg"
   xmlns="http://www.w3.org/2000/svg"
   xmlns:sodipodi="http://sodipodi.sourceforge.net/DTD/sodipodi-0.dtd"
   xmlns:inkscape="http://www.inkscape.org/namespaces/inkscape"
   version="1.1"
   id="svg2"
   xml:space="preserve"
   width="530.66669"
   height="364"
   viewBox="0 0 530.66669 364"
   sodipodi:docname="via_perifa_logo.ai"><metadata
     id="metadata8"><rdf:RDF><cc:Work
         rdf:about=""><dc:format>image/svg+xml</dc:format><dc:type
           rdf:resource="http://purl.org/dc/dcmitype/StillImage" /></cc:Work></rdf:RDF></metadata><defs
     id="defs6"><clipPath
       clipPathUnits="userSpaceOnUse"
       id="clipPath18"><path
         d="M 0,273 H 398 V 0 H 0 Z"
         id="path16" /></clipPath></defs><sodipodi:namedview
     pagecolor="#ffffff"
     bordercolor="#666666"
     borderopacity="1"
     objecttolerance="10"
     gridtolerance="10"
     guidetolerance="10"
     inkscape:pageopacity="0"
     inkscape:pageshadow="2"
     inkscape:window-width="640"
     inkscape:window-height="480"
     id="namedview4" /><g
     id="g10"
     inkscape:groupmode="layer"
     inkscape:label="via_perifa_logo"
     transform="matrix(1.3333333,0,0,-1.3333333,0,364)"><g
       id="g12"><g
         id="g14"
         clip-path="url(#clipPath18)"><g
           id="g20"
           transform="translate(356.3281,72.0908)"><path
             d="m 0,0 c -0.277,-1.557 -0.534,-3.114 -0.79,-4.671 l -1.581,-8.673 -0.256,-0.887 c -0.257,-1.992 -0.534,-4.001 -1.324,-5.993 l -0.257,-0.906 c 0,-0.651 0.791,-1.103 2.628,-1.321 1.837,-0.236 6.301,-1.557 12.858,-3.784 l 0.513,-0.217 c 0.277,0 0.277,0 0.534,0.217 0.256,0 0.256,0 0.256,0.217 l -1.837,4.455 C 7.07,-13.778 4.443,-6.663 2.884,-0.217 2.606,1.558 2.094,3.114 1.047,4.671 0.791,4.889 0.513,5.559 0.513,6.445 V 4.889 C 0.513,3.114 0.257,1.558 0,0 m -19.672,-45.808 c -2.628,-1.556 -5.511,-2.226 -8.672,-2.226 h -0.791 c -1.558,0.235 -2.349,0.67 -2.349,1.34 0,0.216 0.256,0.67 0.791,1.34 3.395,3.765 5.51,7.785 6.813,12.003 0.256,0.887 0.534,1.557 0.534,1.992 0,0.453 -1.068,0.905 -2.883,1.123 -0.278,0 -0.278,0 -0.278,0.216 l -4.721,0.67 c -0.791,0 -1.836,-0.216 -2.883,-0.452 l -1.047,-0.218 c -0.79,0 -1.303,0.67 -1.303,1.775 0.256,0.888 0.513,1.793 1.303,2.68 2.884,3.784 7.092,5.993 12.858,6.663 1.304,0 1.837,0.452 2.094,1.556 l 1.047,9.126 v 3.549 c 0.534,3.567 0.79,7.115 0.79,10.682 l -0.256,15.119 c 0,2.444 -0.278,5.105 -0.534,7.55 l -1.304,18.467 c -2.405,21.531 -0.497,48.456 -10.652,45.663 -37.833,-10.404 -52.491,1.485 -62.823,14.062 -10.333,12.577 -8.686,42.266 -9.817,45.494 -1.131,3.229 -57.243,-23.648 -57.243,-23.648 0.235,-4.181 4.173,-10.316 4.173,-10.316 -9.746,5.797 -38.659,14.168 -38.659,14.168 7.05,6.033 14.88,47.339 14.88,47.339 0.387,-5.59 4.524,-12.915 4.524,-12.915 0,0 70.337,27.786 88.5,20.612 18.163,-7.173 17.653,-24.581 16.158,-48.969 -1.411,-23.031 11.176,-31.208 40.589,-20.221 C 2.814,130.985 4.445,95.827 -0.379,63.237 -0.15,62.944 0.065,62.63 0.257,62.266 1.303,60.256 2.35,58.265 3.14,56.255 c 2.883,-5.559 4.464,-8.89 4.977,-10.447 0.79,-1.557 1.58,-2.897 2.371,-4.454 0.79,-1.557 1.58,-3.332 2.35,-5.324 0.79,-2.009 1.58,-4.001 2.627,-6.01 1.047,-1.992 2.884,-5.776 5.254,-11.788 l 1.047,-2.226 c 0.791,-3.114 2.371,-6.663 4.186,-10.882 l 2.371,-6.464 c 0.257,-1.104 0.534,-1.991 0.79,-2.879 l 4.465,-14.231 c 0.256,-1.557 0.513,-3.113 1.046,-4.453 0.791,-1.34 1.047,-2.662 1.047,-3.784 0.79,-2.879 1.303,-5.994 1.581,-9.108 0,-2.227 -1.324,-3.784 -3.674,-4.672 -1.324,-0.67 -2.371,-0.887 -3.674,-1.122 -1.324,-0.218 -2.371,-0.888 -3.674,-1.539 -1.046,-0.67 -2.371,-1.123 -3.673,-1.123 -0.791,0 -1.838,0.218 -2.628,0.453 -0.79,0.217 -1.837,0.435 -2.627,0.67 -1.837,0.435 -3.397,1.105 -4.977,1.774 -3.674,1.557 -7.348,2.879 -11.022,4.001 -2.627,0.67 -5.254,1.558 -7.604,2.445 -0.79,0.218 -1.324,0.453 -1.581,0.453 -0.79,0 -1.303,-0.453 -1.837,-1.34 -1.837,-4.237 -4.976,-7.568 -9.953,-10.013 m 58.227,-11.551 c -4.464,1.992 -8.929,3.332 -13.906,4.436 l -9.974,2.444 c -8.117,2.01 -14.675,3.332 -19.673,3.785 -0.79,0 -1.303,0 -1.837,0.216 -0.513,0.236 -0.79,0.236 -1.047,0.236 h -0.513 c -3.417,0 -6.556,-0.67 -9.44,-2.227 -2.905,-1.557 -4.742,-3.567 -5.511,-6.011 l -0.278,-1.34 c 0,-0.217 0.278,-0.652 0.534,-0.887 0.257,-0.218 0.79,-0.435 1.047,-0.435 0.79,0 1.303,0.217 1.837,0.435 0.79,0.235 1.303,0.235 1.837,0.235 l 2.093,-0.453 c 0.791,-0.217 1.837,-0.434 2.883,-0.67 5.255,-1.321 13.65,-4.001 25.461,-8.003 6.281,-2.226 10.744,-3.548 13.116,-4.001 l 4.976,-0.886 c 1.047,0 2.094,0.216 2.884,0.67 4.208,1.773 7.091,4.435 8.394,8.002 l 0.256,1.339 c 0,1.323 -1.047,2.445 -3.139,3.115 M -293.917,51.052 c 0,1.531 -0.438,2.625 -1.313,3.062 -2.187,0.657 -4.594,0.875 -7.438,0.875 -4.594,0 -10.283,-0.656 -16.846,-2.187 -0.656,-0.219 -1.094,-0.656 -1.094,-0.875 -0.219,-0.438 -0.219,-0.875 -0.437,-1.531 0,-1.095 -0.219,-3.501 -0.876,-6.783 l -2.625,-12.033 -0.219,-1.312 -1.969,-9.189 c -0.656,-1.532 -1.094,-3.501 -1.312,-5.907 -0.439,-2.407 -1.095,-4.595 -1.751,-6.782 -0.219,-1.094 -0.438,-1.969 -0.657,-2.845 l -0.656,-3.281 c -0.437,-1.094 -0.875,-2.407 -1.094,-3.72 -0.218,-1.313 -0.656,-2.625 -1.093,-4.156 l -0.219,-0.657 c 0,-0.656 0.219,-0.875 0.656,-0.875 l 1.313,0.438 c 5.688,3.281 11.158,7.876 16.627,13.783 6.126,6.782 10.502,13.346 13.345,20.128 0.438,0.656 0.657,1.094 0.875,1.531 0.219,0.219 0.438,0.875 0.876,1.532 0.438,0.656 0.875,1.531 1.313,2.625 0.219,1.093 0.875,2.626 1.75,4.594 l 1.531,5.47 c 0.875,3.719 1.313,6.344 1.313,8.095 m 10.939,-34.13 c -1.531,-3.281 -3.501,-6.345 -5.907,-9.189 L -289.76,6.64 c -1.532,-1.97 -3.5,-3.939 -5.47,-5.689 -4.375,-3.72 -7.876,-6.345 -10.282,-7.876 -0.656,-0.219 -1.094,-0.656 -1.531,-1.095 -0.439,-0.437 -0.876,-0.875 -1.314,-1.093 -10.282,-6.126 -18.377,-9.626 -24.722,-10.72 -1.75,-0.219 -3.063,-0.656 -3.719,-1.313 -0.875,-0.656 -1.969,-4.813 -3.063,-12.47 l -2.845,-22.097 c 0,-0.656 0.438,-1.094 1.314,-1.532 0.875,-0.656 1.312,-1.313 1.312,-1.969 0,-0.437 0,-0.875 -0.218,-1.531 -0.219,-0.656 -0.438,-1.094 -0.657,-1.75 -0.875,-3.282 -2.188,-4.814 -3.938,-4.814 l -1.531,0.219 c -4.158,0.656 -6.783,2.188 -7.658,4.157 -0.875,1.969 -1.312,4.813 -1.312,8.97 0,12.252 0.656,23.191 2.187,32.817 0.438,3.5 0.657,6.345 0.657,8.314 0,1.531 -0.219,2.844 -0.657,3.5 -0.656,0.656 -1.093,1.532 -1.531,2.626 v 0.656 c 0,0.875 0.656,1.313 1.969,1.313 0.656,0 1.312,0.218 1.531,0.875 0.656,6.126 1.75,12.252 3.064,18.378 l 3.5,15.314 c 0.218,1.75 0.437,2.844 0.656,3.281 0,0.438 0.219,1.314 0.656,2.626 0.875,2.625 1.314,4.813 1.314,6.345 0,1.094 -0.22,2.406 -0.658,3.5 -0.656,1.094 -0.875,2.188 -0.875,3.719 0,1.095 0.657,2.407 1.751,4.157 1.094,1.531 2.625,3.063 4.594,4.595 0.656,0.656 1.094,1.312 1.313,1.968 0.218,0.657 0.437,1.094 0.657,1.532 1.094,1.531 2.187,2.407 3.281,2.407 0.438,0 0.875,0 1.531,-0.219 0.438,-0.22 1.094,-0.22 1.75,-0.22 0.876,0 1.97,0.22 3.064,0.439 6.345,2.406 12.252,3.5 17.721,3.5 6.563,0 12.47,-1.75 17.502,-5.032 8.533,-5.469 12.909,-13.783 12.909,-24.503 0,-5.251 -0.875,-10.282 -2.845,-15.315 -0.656,-1.968 -1.313,-3.501 -1.969,-4.594 z m 99.979,-4.814 c 3.282,2.845 7.658,7.22 13.126,12.69 5.47,5.47 10.94,10.939 15.972,16.628 5.031,5.469 8.313,10.063 9.844,13.563 l 0.219,0.219 c 0.438,0.656 0.656,1.313 0.656,1.751 0,0.219 0,0.437 -0.218,0.656 -0.219,0.219 -0.875,0.219 -2.188,0.438 -2.187,0.218 -4.376,0.437 -6.345,0.437 -5.906,0 -11.595,-1.094 -17.064,-3.063 -1.094,-0.219 -1.532,-0.875 -1.751,-1.969 -0.218,-1.094 -0.437,-1.969 -0.875,-2.844 -0.656,-1.751 -1.312,-3.501 -1.531,-5.032 -0.437,-1.531 -0.875,-3.062 -1.531,-4.594 l -1.97,-6.126 -1.312,-4.157 c -2.844,-8.313 -4.594,-14.877 -5.688,-19.472 z m 61.478,-31.722 c -0.658,-3.501 -1.095,-7.001 -1.095,-10.502 0,-1.094 0,-1.969 0.219,-2.844 0,-1.094 0.438,-1.75 1.094,-2.187 0.657,-0.438 0.875,-1.095 0.875,-1.751 v -0.657 c 0,-0.437 -0.437,-0.875 -1.312,-1.093 -1.095,-0.438 -1.97,-0.657 -3.064,-0.657 -1.531,0 -3.281,0.438 -5.688,1.313 -2.406,0.656 -3.719,2.188 -4.156,4.595 -0.438,3.5 -0.657,6.782 -0.657,9.626 0,3.282 0.875,11.814 2.625,26.035 l 0.369,3.315 c -0.105,-0.165 -0.222,-0.326 -0.369,-0.472 -4.594,-5.031 -10.064,-8.969 -16.19,-12.251 -10.719,-5.907 -19.033,-9.408 -24.94,-10.72 -4.814,-1.094 -8.97,-1.532 -12.252,-1.532 -1.969,0 -3.281,-0.218 -4.156,-0.656 -0.876,-0.437 -1.532,-4.376 -2.189,-11.814 -0.218,-1.75 -0.437,-3.719 -0.656,-6.126 -0.219,-0.875 -0.219,-2.406 -0.219,-4.594 0,-2.188 0.219,-3.501 0.657,-3.938 0.218,-0.657 0.437,-1.094 0.437,-1.532 0,-1.093 -0.656,-1.75 -1.969,-1.75 -2.406,0.219 -4.813,0.875 -6.782,2.407 -1.969,1.531 -3.281,3.937 -3.72,7.657 v 6.345 c 0,2.843 0.22,6.344 0.658,10.719 l 0.218,2.189 -0.218,0.656 c -1.095,0.656 -2.189,1.312 -3.064,2.187 -1.969,1.313 -2.844,2.845 -2.844,4.376 0,1.094 0.657,1.75 1.969,2.407 1.001,0.5 1.617,1.001 1.855,1.501 -0.362,0.029 -0.75,0.03 -1.197,0.03 -0.875,0 -1.75,-0.219 -2.625,-0.438 -1.093,-0.218 -2.187,-0.656 -3.281,-0.875 -3.72,-0.875 -7.658,-1.968 -11.377,-3.5 -3.72,-1.094 -6.563,-1.969 -8.095,-2.844 -1.75,-0.875 -3.719,-1.75 -5.688,-2.407 -2.625,-0.875 -5.032,-1.75 -7.439,-2.844 -2.406,-1.094 -4.594,-2.406 -6.563,-3.5 -2.188,-1.094 -4.376,-2.188 -6.345,-3.281 -2.187,-1.095 -3.938,-1.97 -5.251,-2.845 -0.219,-0.219 -0.656,-0.438 -1.094,-0.656 l -2.843,-1.969 -8.095,-4.814 c -0.876,-0.437 -1.751,-0.656 -2.845,-0.656 -0.656,0 -1.531,0.219 -2.406,0.438 -2.626,1.093 -4.595,3.062 -6.126,5.907 -0.437,0.656 -0.656,1.531 -0.656,2.187 0,1.094 0.875,2.626 2.406,4.158 0.875,1.312 2.626,3.062 5.47,5.25 1.968,1.75 3.719,3.063 5.251,3.719 2.843,1.969 5.031,3.282 6.563,3.939 0.875,0.218 1.969,0.656 3.063,1.312 1.75,1.094 3.501,1.75 5.251,2.406 1.531,0.438 3.062,0.875 4.594,1.532 l 7.658,2.407 c 5.031,1.75 10.282,3.281 15.314,4.594 11.595,2.844 18.377,4.376 20.347,4.376 h 1.312 c 3.282,-0.875 5.907,-2.844 7.439,-6.126 0.409,-0.683 0.723,-1.378 0.962,-2.167 0.234,0.096 0.594,0.55 0.786,1.51 0.219,1.969 0.437,3.72 0.656,5.47 l 0.656,3.5 c 0.219,2.845 0.875,5.907 1.532,8.752 1.532,7.657 2.626,13.564 3.719,17.721 1.094,3.938 2.188,7.876 3.5,11.814 0,0.438 -0.437,1.094 -1.531,2.188 -1.094,0.656 -1.75,1.312 -2.187,2.406 -0.219,0.219 -0.438,0.656 -0.438,1.313 0,0.656 0.219,1.532 0.875,2.626 2.406,3.5 5.032,6.125 8.313,8.094 1.969,1.313 3.501,2.625 4.595,3.938 0.219,0.218 1.75,1.094 4.813,2.188 7.877,2.844 15.096,4.156 21.878,4.156 h 5.906 c 2.845,-0.218 6.345,-1.531 10.065,-3.937 3.719,-2.626 6.126,-7.001 7.657,-12.908 v -1.313 c 0,-7.001 -4.376,-14.877 -12.908,-23.628 -8.532,-8.752 -17.283,-16.628 -26.035,-23.41 -5.25,-4.156 -8.751,-7.22 -10.72,-9.188 8.97,1.312 17.284,3.719 24.94,7.219 8.534,3.72 14.66,6.783 18.597,9.626 l 1.531,1.095 h 0.657 c 0.218,-0.219 0.437,-0.219 0.656,-0.438 0.219,-0.219 0.219,-0.438 0.219,-0.657 1.499,-0.999 2.36,-2.125 2.688,-3.377 l 0.156,1.409 c 0.219,4.376 1.094,8.751 2.188,12.908 l 0.438,1.531 c 0.657,4.595 2.844,7.001 6.344,7.001 2.626,0 4.814,-0.437 6.782,-1.312 1.751,-1.094 2.626,-2.407 2.626,-4.376 0,-2.844 -1.094,-8.533 -3.063,-16.627 -0.875,-2.844 -2.625,-12.471 -5.031,-28.879 m 15.314,82.479 c 0.219,0.438 0.219,0.876 0.437,1.095 0,0.219 0,0.437 0.219,0.875 0.219,0.437 0.438,1.094 0.875,1.969 v 0.656 c 1.969,5.688 2.844,9.407 2.844,11.158 0,1.969 -0.875,3.719 -2.844,5.25 -1.969,1.532 -4.157,2.189 -6.782,2.189 -2.406,0 -4.157,-1.313 -5.032,-4.158 l -0.656,-1.75 c -1.313,-3.719 -1.969,-6.344 -1.969,-8.094 v -0.657 c -0.219,-0.218 -0.219,-0.218 -0.219,-0.437 0,-0.219 0,-0.219 -0.219,-0.439 -0.218,-0.218 -0.218,-1.093 -0.218,-2.187 -0.438,-1.969 -0.657,-3.719 -0.657,-5.47 -0.437,-2.406 -0.656,-4.812 -0.656,-7.219 0,-3.282 0.219,-5.25 0.875,-6.126 0.438,-0.875 1.094,-1.75 1.969,-2.407 1.969,-1.968 4.376,-2.843 6.782,-2.843 h 1.531 c 0.875,0.218 1.313,0.437 1.313,1.093 0,0.219 0,0.657 -0.219,0.875 -0.219,0.219 -0.219,0.438 -0.219,0.657 -0.219,0 -0.219,0 -0.219,0.218 -0.218,0.219 -0.218,0.875 -0.218,1.969 0,3.501 0.656,6.782 1.751,9.627 0.437,1.75 0.875,3.062 1.531,4.156 m 77.666,-5.687 c 0.875,1.093 1.312,2.187 1.312,3.718 0,2.407 -1.312,4.814 -3.937,7.658 -2.188,2.188 -4.595,3.501 -7.001,4.157 l -4.376,0.219 c -3.281,0 -6.563,-0.438 -9.845,-1.313 -1.093,0 -4.157,-0.656 -9.189,-2.188 l -2.188,-0.657 c -0.656,0 -1.093,0.219 -1.312,0.657 -1.969,5.032 -5.689,8.314 -11.158,9.627 -0.438,0.218 -0.875,0.218 -1.532,0.218 -0.656,0 -1.531,-0.218 -2.406,-0.875 -1.97,-1.969 -2.845,-3.501 -2.845,-5.032 -1.531,-3.72 -2.625,-7.438 -3.5,-11.377 -0.218,-0.656 -0.437,-1.094 -1.093,-1.312 -3.72,-1.532 -6.564,-3.063 -8.534,-4.595 -1.093,-1.094 -2.406,-1.969 -3.937,-2.625 l -0.438,-0.219 c -1.093,-1.093 -2.407,-2.406 -4.376,-3.938 -1.093,-1.094 -1.531,-1.969 -1.531,-3.063 0,-0.656 0.219,-1.531 0.656,-2.187 1.532,-2.844 3.501,-5.032 6.126,-6.564 1.313,-0.875 2.625,-1.312 4.158,-1.312 l 1.75,0.219 c 0.656,0 0.875,-0.219 0.875,-0.657 v -0.218 c 0,-3.283 -0.219,-5.033 -0.657,-5.033 l -0.656,-4.813 c -0.875,-6.126 -1.532,-10.501 -1.97,-13.127 -0.437,-2.625 -0.656,-5.25 -0.875,-7.876 -0.218,-0.656 -0.437,-1.094 -0.875,-1.313 l -4.813,-3.062 c -3.063,-1.751 -5.906,-3.72 -8.751,-5.907 -0.656,-0.438 -1.094,-0.875 -1.312,-1.313 -0.219,-0.656 -0.657,-1.095 -1.094,-1.532 -1.094,-1.094 -1.75,-2.188 -1.75,-3.5 0,-1.75 1.094,-3.72 3.5,-5.689 h 0.219 c 2.844,-2.187 5.032,-3.281 6.782,-3.281 1.312,0 2.844,0.438 4.376,1.531 0,0.219 0.218,0.219 0.875,0.219 l 0.218,-0.437 -0.218,-0.438 -0.219,-3.063 c -0.438,-3.938 -0.656,-7.876 -0.656,-11.595 l -0.219,-7.657 v -9.627 c 0,-1.531 0.219,-3.281 0.437,-4.813 0,-2.844 0.438,-5.251 1.532,-7.22 2.843,-5.032 7.001,-7.439 12.689,-7.658 1.094,0 1.969,0.658 2.625,1.751 0.219,0.657 0.438,1.094 0.438,1.532 0,0.656 -0.438,1.093 -1.094,1.75 -0.656,0.656 -1.094,1.312 -1.313,2.187 -0.218,0.657 -0.218,1.532 -0.218,2.407 l -0.219,0.219 v 3.719 c 0,5.688 0.656,14.002 1.75,24.941 0.219,0.219 0.219,0.657 0.219,1.094 0.656,5.47 1.312,10.939 2.406,16.408 0.438,2.407 0.657,4.814 0.876,7.22 0.219,2.188 1.094,3.938 2.844,5.032 8.751,5.251 15.533,8.97 20.346,11.377 l 0.438,0.219 c 1.531,1.094 3.062,1.531 4.157,1.531 1.094,0 2.188,-0.437 3.281,-1.094 0.219,-0.218 0.875,-0.218 1.532,-0.218 0.875,0 1.531,0.218 2.188,0.875 0.656,0.656 0.875,1.312 0.875,2.187 l -0.219,1.094 c -0.875,1.97 -2.188,3.72 -3.719,5.251 -2.188,2.187 -4.814,3.282 -7.658,3.282 h -1.531 c -5.032,-1.095 -9.846,-2.626 -14.439,-4.813 l -0.438,-0.219 c -0.656,-0.438 -1.532,-0.656 -2.626,-0.656 l 0.219,1.531 c 0.219,1.312 0.437,2.406 0.656,3.501 0.657,1.969 1.314,4.156 1.751,6.125 0.219,1.97 0.875,4.157 1.531,6.345 0.438,1.532 0.875,3.063 1.094,4.594 1.094,3.282 1.75,6.345 1.969,8.751 0.219,1.532 1.313,2.844 2.845,3.501 l 14.658,5.907 c 2.406,0.437 4.375,1.094 6.126,2.188 0.656,0.437 1.531,0.656 2.187,0.656 0.657,0 1.094,0 1.313,-0.219 0.219,-0.218 0.219,-0.437 0.437,-0.656 0.657,-1.313 1.97,-2.407 3.501,-3.063 0.875,-0.219 1.75,-0.438 2.407,-0.438 2.406,0 4.594,1.094 6.563,3.064 m -244.112,66.321 c 1.986,8.169 3.091,13.91 3.091,16.779 0,1.988 -0.884,3.312 -2.65,4.416 -1.987,0.883 -4.194,1.325 -6.844,1.325 -3.532,0 -5.741,-2.429 -6.403,-7.065 l -0.441,-1.545 c -1.104,-4.196 -1.988,-8.611 -2.208,-13.027 l -0.883,-7.948 c -1.766,-14.351 -2.65,-22.961 -2.65,-26.273 0,-2.87 0.221,-6.182 0.662,-9.714 0.442,-2.429 1.767,-3.975 4.196,-4.637 2.428,-0.883 4.195,-1.325 5.74,-1.325 1.104,0 1.987,0.221 3.091,0.662 0.883,0.222 1.325,0.663 1.325,1.104 v 0.663 c 0,0.662 -0.222,1.325 -0.884,1.766 -0.662,0.442 -1.104,1.104 -1.104,2.208 -0.22,0.883 -0.22,1.766 -0.22,2.87 0,3.533 0.441,7.065 1.104,10.597 2.428,16.56 4.194,26.274 5.078,29.144 m 22.709,-100.014 0.656,0.219 c 9.846,7.439 19.91,14.44 30.63,21.003 3.282,2.406 6.564,3.938 9.408,4.594 h 0.656 l 2.188,-0.438 c 1.313,0 1.969,0.657 1.969,2.189 v 0.875 c -0.656,2.844 -1.969,5.251 -4.376,7.219 -1.094,0.875 -2.406,1.532 -3.937,1.75 -2.845,0 -7.001,-0.437 -12.034,-1.093 -1.093,-0.219 -2.187,-0.438 -3.282,-0.657 l -5.906,-1.093 c -0.657,-0.219 -1.314,-0.219 -1.97,-0.219 -3.5,-0.875 -5.687,-1.313 -6.345,-1.313 -0.875,-0.219 -1.75,-0.219 -2.625,-0.438 -1.531,-0.219 -5.032,-1.312 -10.939,-3.062 -3.281,-0.875 -6.344,-2.188 -9.407,-3.72 -1.969,-0.656 -3.719,-1.75 -5.689,-3.719 -1.094,-1.094 -1.531,-1.969 -1.531,-3.062 0,-0.657 0.219,-1.532 0.437,-2.189 1.094,-2.625 2.626,-4.812 4.814,-6.345 1.094,-1.093 2.625,-1.75 4.375,-1.75 l 4.376,0.875 c 1.969,0.438 3.938,1.095 5.907,1.751 0.656,0.438 1.531,0.875 2.625,1.094 0.875,0.219 1.751,0.438 2.626,0.875 h 0.219 c 0.656,0.438 1.312,0.656 1.969,0.875 2.625,0.219 5.251,1.094 7.657,2.406 0.219,0 0.437,0.219 0.875,0.438 0.219,0.219 0.875,0.438 1.969,0.438 -0.657,-0.657 -1.532,-1.313 -3.063,-1.969 -4.595,-3.282 -9.188,-6.564 -13.783,-9.626 -4.595,-3.283 -8.751,-6.783 -12.471,-10.721 -2.406,-2.625 -5.031,-4.594 -8.313,-6.126 -3.282,-1.531 -5.908,-3.938 -7.876,-6.782 -0.438,-0.875 -0.657,-1.75 -0.657,-2.407 0,-0.656 0,-1.093 0.219,-1.531 1.313,-3.72 3.719,-6.126 7.22,-7.657 0.437,-0.219 0.875,-0.438 1.312,-0.438 0.657,0 2.845,1.094 6.564,3.063 l 9.846,5.251 c 3.281,1.969 6.781,3.719 10.719,5.47 3.72,1.75 6.783,3.062 8.97,4.156 0.875,0.656 3.282,1.751 7.22,3.282 3.72,1.531 7.657,3.281 11.814,5.031 4.158,1.533 8.314,2.845 12.471,3.939 1.312,0.219 1.969,1.094 1.969,2.187 l -0.219,1.314 c -0.656,1.969 -1.969,3.719 -3.719,5.25 -1.094,0.875 -2.188,1.312 -3.501,1.312 -4.813,-0.437 -11.595,-2.187 -20.346,-5.25 l -2.625,-0.656 -10.065,-3.282 -3.062,-1.094 c -1.969,-0.437 -3.72,-1.094 -5.689,-1.969 0.656,0.657 1.094,1.313 1.75,1.75 m 2.68,69.767 c 0,-0.221 0,-0.221 0.221,-0.221 0.22,-0.221 0.22,-0.221 0.441,-0.221 l 0.442,0.221 c 5.519,2.208 9.272,3.533 10.819,3.754 1.545,0.22 2.207,0.662 2.207,1.324 l -0.221,0.883 c -0.662,1.987 -0.883,3.974 -1.103,5.961 l -0.221,0.883 -1.325,8.611 c -0.222,1.546 -0.442,3.091 -0.663,4.636 -0.221,1.546 -0.441,3.091 -0.441,4.857 v 1.546 c 0,-0.883 -0.221,-1.546 -0.442,-1.766 -0.883,-1.546 -1.324,-3.091 -1.545,-4.858 -1.325,-6.402 -3.533,-13.467 -6.623,-21.195 z m -11.26,30.909 c 1.545,4.195 2.87,7.728 3.532,10.818 l 0.884,2.209 c 1.987,5.961 3.532,9.714 4.415,11.701 0.883,1.987 1.546,3.974 2.208,5.962 0.662,1.986 1.325,3.753 1.987,5.298 0.663,1.546 1.325,2.87 1.987,4.415 0.441,1.546 1.767,4.858 4.195,10.377 0.663,1.987 1.545,3.975 2.428,5.961 0.884,1.988 2.209,2.871 4.195,2.871 h 0.442 c 4.857,-0.442 8.832,-2.429 11.922,-5.961 0.442,-0.663 0.662,-1.325 0.883,-1.987 l 0.221,-2.65 h -0.442 l 0.221,-7.285 -1.103,-18.326 c -0.221,-2.428 -0.442,-5.077 -0.442,-7.506 l -0.22,-15.013 c 0,-3.533 0.22,-7.066 0.662,-10.598 v -3.532 l 0.882,-9.052 c 0.221,-1.104 0.663,-1.546 1.768,-1.546 4.856,-0.663 8.389,-2.87 10.818,-6.624 0.662,-0.883 0.883,-1.766 1.103,-2.649 0,-1.104 -0.441,-1.767 -1.103,-1.767 l -0.884,0.222 c -0.883,0.221 -1.766,0.441 -2.428,0.441 l -3.975,-0.663 c 0,-0.22 0,-0.22 -0.221,-0.22 -1.545,-0.221 -2.428,-0.662 -2.428,-1.104 0,-0.441 0.221,-1.104 0.442,-1.987 1.103,-4.195 2.87,-8.169 5.741,-11.922 0.441,-0.662 0.662,-1.104 0.662,-1.325 0,-0.662 -0.662,-1.104 -1.988,-1.324 h -0.662 c -2.65,0 -5.077,0.662 -7.286,2.208 -4.194,2.428 -6.844,5.74 -8.39,9.935 -0.441,0.883 -0.883,1.324 -1.545,1.324 -0.221,0 -0.662,-0.22 -1.325,-0.441 -1.987,-0.883 -4.195,-1.767 -6.403,-2.429 -3.09,-1.104 -6.182,-2.429 -9.272,-3.974 -1.325,-0.663 -2.65,-1.325 -4.195,-1.767 -0.662,-0.22 -1.545,-0.441 -2.208,-0.662 -0.662,-0.22 -1.546,-0.442 -2.208,-0.442 -1.104,0 -2.208,0.442 -3.091,1.104 -1.104,0.663 -1.987,1.325 -3.091,1.546 -1.103,0.221 -1.987,0.442 -3.091,1.104 -1.987,0.883 -3.091,2.429 -3.091,4.637 0.221,3.09 0.663,6.182 1.325,9.051 0,1.104 0.221,2.43 0.883,3.754 0.442,1.324 0.663,2.87 0.883,4.416 l 3.753,14.13 c 0.221,0.883 0.442,1.766 0.662,2.87 z m -15.896,37.534 c 1.987,-1.988 4.416,-2.871 6.844,-2.871 h 1.546 c 0.884,0.221 1.325,0.442 1.325,1.104 0,0.221 0,0.663 -0.221,0.884 -0.22,0.22 -0.22,0.441 -0.22,0.662 -0.221,0 -0.221,0 -0.221,0.221 -0.221,0.221 -0.221,0.883 -0.221,1.987 0,3.532 0.662,6.843 1.766,9.714 0.441,1.766 0.883,3.091 1.546,4.195 0.22,0.442 0.22,0.883 0.441,1.104 0,0.221 0,0.441 0.221,0.883 0.22,0.442 0.441,1.104 0.883,1.987 v 0.662 c 1.987,5.74 2.87,9.494 2.87,11.26 0,1.988 -0.883,3.754 -2.87,5.299 -1.988,1.545 -4.195,2.208 -6.845,2.208 -2.428,0 -4.195,-1.325 -5.077,-4.195 l -0.663,-1.767 c -1.325,-3.753 -1.987,-6.402 -1.987,-8.168 v -0.663 c -0.22,-0.221 -0.22,-0.221 -0.22,-0.441 0,-0.221 0,-0.221 -0.221,-0.442 -0.221,-0.22 -0.221,-1.104 -0.221,-2.208 -0.441,-1.987 -0.662,-3.753 -0.662,-5.519 -0.442,-2.429 -0.663,-4.857 -0.663,-7.286 0,-3.312 0.221,-5.299 0.884,-6.182 0.441,-0.883 1.103,-1.766 1.986,-2.428 m -79.263,-25.611 -0.221,5.961 c 0,18.325 2.65,27.598 7.948,27.598 h 1.104 c 4.637,-0.663 7.065,-2.208 7.065,-5.079 l 0.221,-5.298 c 0,-3.753 0.221,-7.727 0.442,-11.481 v -3.311 c 0,-0.884 0,-1.766 0.221,-2.65 0.22,-1.104 0.22,-2.208 0.22,-3.532 v -1.546 c 0,-1.546 0.221,-4.195 0.662,-7.507 0.221,-3.532 0.663,-6.844 0.883,-9.934 l 0.443,-3.312 c 0.22,-2.87 0.441,-5.962 1.103,-8.831 0.662,-5.079 1.324,-9.053 2.208,-11.481 0.662,0.662 2.649,5.519 5.519,15.013 7.507,24.948 15.234,44.598 23.183,59.39 2.207,4.195 4.857,8.39 8.169,12.143 1.987,1.987 4.194,3.091 6.844,3.091 1.766,0 3.532,-0.441 5.078,-1.104 2.428,-1.324 3.753,-2.649 3.753,-3.753 0,-0.662 -0.221,-1.104 -0.883,-1.325 -0.662,-0.22 -1.104,-0.441 -1.324,-0.441 -0.663,0 -1.326,0 -1.767,0.221 -0.663,0.22 -1.104,0.22 -1.325,0.22 -0.441,-0.22 -0.883,-0.441 -1.324,-0.883 -1.987,-2.428 -3.753,-5.74 -5.52,-9.935 -2.87,-7.065 -4.857,-11.922 -5.52,-14.572 -1.986,-6.403 -3.532,-11.922 -4.856,-16.779 -4.195,-15.897 -7.507,-27.156 -9.495,-33.559 -0.441,-0.662 -1.103,-3.091 -2.207,-7.286 -1.325,-5.078 -3.091,-9.714 -5.52,-14.351 -1.104,-1.987 -2.429,-3.974 -3.974,-5.52 -1.103,-1.104 -3.532,-1.766 -7.285,-1.766 -4.195,0 -7.728,1.104 -11.039,3.533 -3.312,2.208 -5.962,9.052 -8.391,20.533 -1.324,6.623 -1.986,10.156 -1.986,10.597 -1.104,6.403 -1.767,15.455 -2.429,26.936"
             style="fill:#ffffff;fill-opacity:1;fill-rule:nonzero;stroke:none"
             id="path22" /></g></g></g></g></svg>
